<svg xmlns="http://www.w3.org/2000/svg" width="44" height="44" viewBox="0 0 44 44">
  <defs>
    <style>
      .cls-1 {
        fill: #6563ff;
      }

      .cls-2 {
        fill: #fff;
        fill-rule: evenodd;
      }
    </style>
  </defs>
  <g id="Group_81" data-name="Group 81" transform="translate(-1601 -21)">
    <circle id="Ellipse_4" data-name="Ellipse 4" class="cls-1" cx="22" cy="22" r="22" transform="translate(1601 21)"/>
    <path id="Path_24" data-name="Path 24" class="cls-2" d="M10.522,30.732c.2.044.3.075.408.091A2.374,2.374,0,0,1,12.8,32.2a5.452,5.452,0,0,1,.111,4.624,4.211,4.211,0,0,1-3.261,2.431,6.876,6.876,0,0,1-1.433.148c-2.578.014-5.156.007-7.735.006C.01,39.409,0,39.4,0,38.916Q0,31.45,0,23.984c0-.484.011-.5.485-.5,2.746,0,5.493-.026,8.239.014a3.891,3.891,0,0,1,3.307,1.643,4.249,4.249,0,0,1,.509,3.917C12.277,29.867,11.723,30.294,10.522,30.732Zm-4.4,5.876c.694,0,1.388.01,2.082,0a1.636,1.636,0,0,0,1.714-1.438,4.513,4.513,0,0,0-.033-1.461,1.683,1.683,0,0,0-1.745-1.421c-1.377-.014-2.753,0-4.13-.007-.279,0-.407.09-.4.387q.014,1.78,0,3.559c0,.3.119.392.4.388C4.715,36.6,5.42,36.609,6.125,36.608ZM6.064,29.88c.661,0,1.323,0,1.984,0a1.19,1.19,0,0,0,1.3-1.063,5.074,5.074,0,0,0,.055-1.3,1.253,1.253,0,0,0-1.337-1.271c-1.356-.016-2.712,0-4.068-.01-.265,0-.387.094-.384.374.009.964.01,1.927,0,2.891,0,.3.127.389.406.385C4.7,29.873,5.381,29.88,6.064,29.88Zm15.5,4.551q-1.849,0-3.7,0c-.441,0-.492.077-.436.524a2.678,2.678,0,0,0,3.216,2.3,4.459,4.459,0,0,0,.981-.211,1.627,1.627,0,0,0,1.167-1.194.379.379,0,0,1,.435-.321c.672.005,1.345.007,2.017,0,.307,0,.372.132.346.42a3.728,3.728,0,0,1-2.8,3.407,8.062,8.062,0,0,1-5.343-.066,4.79,4.79,0,0,1-3.033-3.16,6.925,6.925,0,0,1,.926-6.4A5.2,5.2,0,0,1,19.145,27.6a7.444,7.444,0,0,1,2.572.1A4.691,4.691,0,0,1,25.39,31.15a8.568,8.568,0,0,1,.353,2.823c-.013.4-.072.457-.484.458Q23.409,34.433,21.56,34.431ZM20,32.36h2.317c.2,0,.373-.037.344-.293a2.286,2.286,0,0,0-1.531-2.091,2.781,2.781,0,0,0-3.661,1.956c-.107.345-.05.424.317.426C18.525,32.365,19.264,32.361,20,32.36ZM20,26.3q-1.394,0-2.788,0c-.448,0-.466-.021-.469-.48,0-.313,0-.627,0-.94,0-.415.029-.443.437-.444q1.982,0,3.963,0c.549,0,1.1,0,1.646,0,.451,0,.464.016.466.48,0,.313,0,.627,0,.94,0,.418-.025.443-.435.444C21.883,26.3,20.943,26.3,20,26.3Z" transform="translate(1610 11.521)"/>
  </g>
</svg>
