<svg xmlns="http://www.w3.org/2000/svg" width="44" height="44" viewBox="0 0 44 44">
  <defs>
    <style>
      .cls-1 {
        fill: #6563ff;
      }

      .cls-2 {
        fill: #fff;
      }
    </style>
  </defs>
  <g id="Group_82" data-name="Group 82" transform="translate(-1684 -21)">
    <circle id="Ellipse_5" data-name="Ellipse 5" class="cls-1" cx="22" cy="22" r="22" transform="translate(1684 21)"/>
    <path id="Path_25" data-name="Path 25" class="cls-2" d="M24.42,4.653h0A13.662,13.662,0,0,0,15.052,1a15.194,15.194,0,0,0-4.59.749,1.331,1.331,0,0,0-.562.187A14.244,14.244,0,0,0,1,15.052a13.893,13.893,0,0,0,3.934,9.743l.094.094A13.855,13.855,0,0,0,15.052,29.1,14.033,14.033,0,0,0,29.1,15.052a13.746,13.746,0,0,0-4.684-10.4ZM15.052,3.81A10.947,10.947,0,0,1,21.7,6.059a9.825,9.825,0,0,1-5.059,3.747A34.577,34.577,0,0,0,13.085,4,13.976,13.976,0,0,1,15.052,3.81ZM10.274,4.934a35.231,35.231,0,0,1,3.653,5.808A34.729,34.729,0,0,1,4.56,11.3,10.992,10.992,0,0,1,10.274,4.934ZM3.81,15.052A4.561,4.561,0,0,1,3.9,13.928a25.122,25.122,0,0,0,3.653.187,28.5,28.5,0,0,0,7.494-.843c.187.375.281.749.468,1.124a20.752,20.752,0,0,0-9.649,7.12A11.532,11.532,0,0,1,3.81,15.052ZM15.052,26.293a11.189,11.189,0,0,1-7.12-2.529,17.516,17.516,0,0,1,8.525-6.557,44,44,0,0,1,1.686,8.618,10.7,10.7,0,0,1-3.091.468Zm2.81-13.864a12.984,12.984,0,0,0,6-4.4,11.54,11.54,0,0,1,2.436,5.808,20.3,20.3,0,0,0-7.869-.094A5.537,5.537,0,0,1,17.862,12.429Zm3.091,12.178a48.268,48.268,0,0,0-1.686-8.15,19.132,19.132,0,0,1,6.839.281,11.226,11.226,0,0,1-5.152,7.869Z" transform="translate(1691 28)"/>
  </g>
</svg>
