<svg xmlns="http://www.w3.org/2000/svg" width="60.563" height="86.4" viewBox="0 0 60.563 86.4">
  <defs>
    <style>
      .cls-1 {
        opacity: 0.1;
      }

      .cls-2 {
        fill: #333;
      }
    </style>
  </defs>
  <g id="Group_56" data-name="Group 56" class="cls-1" transform="translate(-5.313 -0.25)">
    <path id="Path_128" data-name="Path 128" class="cls-2" d="M48.748,33.227H21.605a16.5,16.5,0,0,1,0-32.977H48.748a16.5,16.5,0,0,1,0,32.977ZM21.605,6.51a10.241,10.241,0,0,0,0,20.458H48.748a10.241,10.241,0,0,0,0-20.458Z" transform="translate(0.652)"/>
    <path id="Path_129" data-name="Path 129" class="cls-2" d="M35.347,43.872H21.976a16.476,16.476,0,1,1,0-32.952,3.13,3.13,0,0,1,0,6.26,10.216,10.216,0,1,0,0,20.433H32.218V14.05a3.13,3.13,0,1,1,6.26,0V40.742A3.13,3.13,0,0,1,35.347,43.872Z" transform="translate(0.281 16.048)"/>
    <path id="Path_130" data-name="Path 130" class="cls-2" d="M22.457,54.565a16.5,16.5,0,1,1,0-32.977,3.13,3.13,0,0,1,0,6.26A10.241,10.241,0,1,0,32.674,38.089V24.718a3.13,3.13,0,0,1,6.26,0V38.089A16.5,16.5,0,0,1,22.457,54.565Z" transform="translate(0 32.072)"/>
    <path id="Path_131" data-name="Path 131" class="cls-2" d="M32.862,44.313a16.7,16.7,0,1,1,16.7-16.7A16.7,16.7,0,0,1,32.862,44.313Zm0-27.118A10.442,10.442,0,1,0,43.3,27.612,10.442,10.442,0,0,0,32.862,17.195Z" transform="translate(16.313 16.032)"/>
    <path id="Path_132" data-name="Path 132" class="cls-2" d="M19.285,33.227h0a3.13,3.13,0,0,1-3.1-3.155l.2-26.718a3.13,3.13,0,0,1,3.1-3.1h0a3.13,3.13,0,0,1,3.1,3.155l-.2,26.718a3.155,3.155,0,0,1-3.1,3.1Z" transform="translate(16.343)"/>
  </g>
</svg>
