<svg xmlns="http://www.w3.org/2000/svg" xmlns:xlink="http://www.w3.org/1999/xlink" width="785.2" height="730.956" viewBox="0 0 785.2 730.956">
  <defs>
    <style>
      .cls-1, .cls-12 {
        fill: #3f3d9e;
      }

      .cls-1, .cls-2, .cls-23, .cls-24, .cls-3, .cls-6, .cls-7, .cls-8, .cls-9 {
        stroke: #263238;
      }

      .cls-1, .cls-10, .cls-2, .cls-23, .cls-24, .cls-3, .cls-6, .cls-7, .cls-8, .cls-9 {
        stroke-linecap: round;
        stroke-linejoin: round;
      }

      .cls-15, .cls-2 {
        fill: #263238;
      }

      .cls-18, .cls-3 {
        fill: #fff;
      }

      .cls-4, .cls-5 {
        fill: #cfcfff;
      }

      .cls-5 {
        opacity: 0.7;
      }

      .cls-10, .cls-6, .cls-8, .cls-9 {
        fill: none;
      }

      .cls-11, .cls-7 {
        fill: #6563ff;
      }

      .cls-8 {
        stroke-width: 2px;
      }

      .cls-9 {
        stroke-dasharray: 1 3;
      }

      .cls-10 {
        stroke: #fff;
      }

      .cls-13 {
        clip-path: url(#clip-path);
      }

      .cls-14 {
        fill: rgba(63,61,158,0.7);
      }

      .cls-14, .cls-17 {
        opacity: 0.3;
      }

      .cls-16 {
        clip-path: url(#clip-path-2);
      }

      .cls-17, .cls-20 {
        fill: rgba(0,0,0,0.7);
      }

      .cls-19 {
        clip-path: url(#clip-path-3);
      }

      .cls-20 {
        opacity: 0.2;
      }

      .cls-21 {
        clip-path: url(#clip-path-4);
      }

      .cls-22 {
        clip-path: url(#clip-path-5);
      }

      .cls-23 {
        fill: #757575;
      }

      .cls-24 {
        fill: #999;
      }

      .cls-25 {
        fill: #242259;
      }
    </style>
    <clipPath id="clip-path">
      <path id="Path_62" data-name="Path 62" class="cls-1" d="M525.636,466.506c-12.691,20.678-77.086,30.388-112.236,29.47-35.131-.9-136.288-48.8-143.149-58.939-6.355-9.392-21.971-40.436,2.1-59.2a46.642,46.642,0,0,1,6.486-4.2c16.478-8.923,126.071,19.215,126.071,19.215s6.786-4.293,9.28-3.974c7.649.975,13.066,7.161,28.57,11.567,10.817,3.093,40.343-8.792,59.2,1.425a26.012,26.012,0,0,1,5.736,4.162C525.317,422.864,538.308,445.829,525.636,466.506Z" transform="translate(-259.382 -371.887)"/>
    </clipPath>
    <clipPath id="clip-path-2">
      <path id="Path_67" data-name="Path 67" class="cls-2" d="M332.162,441.077,365,466.85s25.46-2.017,47.088-7.038l0-.015c15.562-3.6,29.147-8.77,29.9-15.848,1.138-10.762-10.367-13.711-24.039-13.291-2.557.056-5.176.253-7.819.531-21.883,2.345-49.7-9.743-49.7-9.743Z" transform="translate(-332.162 -421.446)"/>
    </clipPath>
    <clipPath id="clip-path-3">
      <path id="Path_71" data-name="Path 71" class="cls-3" d="M349.561,437.381c-5.92.965.585,13.074,8.61,9.4S355.481,436.415,349.561,437.381Z" transform="translate(-347.268 -437.287)"/>
    </clipPath>
    <clipPath id="clip-path-4">
      <path id="Path_75" data-name="Path 75" class="cls-3" d="M375.99,455.518c15.562-3.6,29.147-8.77,29.9-15.848,1.138-10.762-10.367-13.711-24.039-13.291C381.247,426.951,367.995,439.768,375.99,455.518Z" transform="translate(-373.433 -426.34)"/>
    </clipPath>
    <clipPath id="clip-path-5">
      <path id="Path_85" data-name="Path 85" class="cls-2" d="M372.488,442.942l-35.362,22.183s-25.109-4.681-46.088-11.945v-.017c-15.1-5.215-28.066-11.782-28.066-18.9,0-10.822,11.749-12.545,25.3-10.693,2.535.326,5.12.8,7.72,1.35,21.515,4.63,50.443-4.469,50.443-4.469Z" transform="translate(-262.972 -420.45)"/>
    </clipPath>
  </defs>
  <g id="Group_83" data-name="Group 83" transform="translate(-943.3 -224.379)">
    <g id="Group_54" data-name="Group 54" transform="translate(901.808 166.865)">
      <g id="Group_7" data-name="Group 7" transform="translate(75.76 62.94)">
        <path id="Path_27" data-name="Path 27" class="cls-4" d="M76.813,756.178H472.767q2.407-3.833,4.865-7.594c42.594-64.837,110.785-111.06,185.269-132.743,33.367-9.714,69.516-15.494,96.327-37.6,27.588-22.751,40.258-59.044,45.745-94.378,6.644-42.785,3.05-90.743-25.99-122.856-34.1-37.714-91.238-41.938-135.671-66.661C566.845,251.8,537.2,154.887,467.634,101.8,423.707,68.276,364.356,55.283,311.28,62.631c-75.342,10.431-146.234,60.926-167.514,134.9a187.061,187.061,0,0,0-6.449,66.384c3.4,44.148,12.9,88.864,3.942,132.225-9.872,47.791-40.969,88.141-59.547,133.266C58.584,585.59,55.4,648.648,65.29,708.591A308.379,308.379,0,0,0,76.813,756.178Z" transform="translate(-60.005 -60.641)"/>
        <path id="Path_28" data-name="Path 28" class="cls-5" d="M76.813,756.178H472.767q2.407-3.833,4.865-7.594c42.594-64.837,110.785-111.06,185.269-132.743,33.367-9.714,69.516-15.494,96.327-37.6,27.588-22.751,40.258-59.044,45.745-94.378,6.644-42.785,3.05-90.743-25.99-122.856-34.1-37.714-91.238-41.938-135.671-66.661C566.845,251.8,537.2,154.887,467.634,101.8,423.707,68.276,364.356,55.283,311.28,62.631c-75.342,10.431-146.234,60.926-167.514,134.9a187.061,187.061,0,0,0-6.449,66.384c3.4,44.148,12.9,88.864,3.942,132.225-9.872,47.791-40.969,88.141-59.547,133.266C58.584,585.59,55.4,648.648,65.29,708.591A308.379,308.379,0,0,0,76.813,756.178Z" transform="translate(-60.005 -60.641)"/>
      </g>
      <line id="Line_1" data-name="Line 1" class="cls-6" x2="784.2" transform="translate(41.992 758.476)"/>
      <g id="Group_12" data-name="Group 12" transform="translate(193.328 66.294)">
        <path id="Path_29" data-name="Path 29" class="cls-3" d="M354.374,157.96V128.53l-22.044-1.9a60.676,60.676,0,0,0-5.451-13.211L341.109,96.5,320.3,75.7,303.386,89.927a60.768,60.768,0,0,0-13.211-5.451l-1.9-22.044h-29.43l-1.9,22.044a60.77,60.77,0,0,0-13.211,5.451L226.821,75.7,206.012,96.5l14.231,16.915a60.771,60.771,0,0,0-5.451,13.211l-22.044,1.9v29.43l22.044,1.9a60.772,60.772,0,0,0,5.451,13.211l-14.231,16.915,20.809,20.809,16.915-14.231a60.679,60.679,0,0,0,13.211,5.452l1.9,22.044h29.43l1.9-22.044a60.678,60.678,0,0,0,13.211-5.452L320.3,210.793l20.809-20.809-14.23-16.915a60.676,60.676,0,0,0,5.451-13.211Zm-80.813,19.483a34.2,34.2,0,1,1,34.2-34.2A34.2,34.2,0,0,1,273.562,177.443Z" transform="translate(-61.469 -62.431)"/>
        <path id="Path_30" data-name="Path 30" class="cls-3" d="M483.853,288.22V274.106l-10.571-.911a29.067,29.067,0,0,0-2.615-6.334l6.826-8.112-9.981-9.981-8.112,6.826a29.021,29.021,0,0,0-6.334-2.613l-.911-10.573H438.041l-.911,10.573a29.06,29.06,0,0,0-6.335,2.613l-8.112-6.826-9.981,9.981,6.826,8.112a29.118,29.118,0,0,0-2.615,6.334l-10.571.911V288.22l10.571.911a29.117,29.117,0,0,0,2.615,6.334l-6.826,8.112,9.981,9.981,8.112-6.826a29.064,29.064,0,0,0,6.335,2.615l.911,10.571h14.114l.911-10.571a29.025,29.025,0,0,0,6.334-2.615l8.112,6.826,9.981-9.981-6.826-8.112a29.03,29.03,0,0,0,2.615-6.334ZM445.1,297.563a16.4,16.4,0,1,1,16.4-16.4A16.4,16.4,0,0,1,445.1,297.563Z" transform="translate(125.354 94.986)"/>
        <g id="Group_9" data-name="Group 9" transform="translate(430.035 61.68)">
          <path id="Path_31" data-name="Path 31" class="cls-7" d="M520.673,159.945a38.489,38.489,0,0,0-47.543-45.817,36.922,36.922,0,0,0-69.016,15.815,30.08,30.08,0,0,0-35.562,26.238,16.8,16.8,0,0,0,.367,33.594H510.057a16.8,16.8,0,0,0,10.616-29.83Z" transform="translate(-352.113 -95.333)"/>
          <g id="Group_8" data-name="Group 8" transform="translate(83.61 43.674)">
            <line id="Line_2" data-name="Line 2" class="cls-7" y2="38.894" transform="translate(7.345 37.874)"/>
            <line id="Line_3" data-name="Line 3" class="cls-7" y2="15.558" transform="translate(7.345 14.538)"/>
            <line id="Line_4" data-name="Line 4" class="cls-7" y2="8.322" transform="translate(7.345)"/>
            <path id="Path_32" data-name="Path 32" class="cls-7" d="M396.713,157.156l7.345,9.092,7.345-9.092" transform="translate(-396.713 -84.934)"/>
          </g>
        </g>
        <g id="Group_11" data-name="Group 11" transform="translate(0 517.882)">
          <path id="Path_33" data-name="Path 33" class="cls-3" d="M291.281,403.3a38.49,38.49,0,0,0-47.545-45.817,36.921,36.921,0,0,0-69.014,15.815,30.092,30.092,0,0,0-35.564,26.238,16.8,16.8,0,0,0,.367,33.594H280.663a16.8,16.8,0,0,0,10.618-29.83Z" transform="translate(-122.719 -338.685)"/>
          <g id="Group_10" data-name="Group 10" transform="translate(83.612 43.673)">
            <line id="Line_5" data-name="Line 5" class="cls-3" y1="38.894" transform="translate(7.345 4.546)"/>
            <line id="Line_6" data-name="Line 6" class="cls-3" y1="15.558" transform="translate(7.345 51.218)"/>
            <line id="Line_7" data-name="Line 7" class="cls-3" y1="8.322" transform="translate(7.345 72.992)"/>
            <path id="Path_34" data-name="Path 34" class="cls-3" d="M182.011,371.074l-7.345-9.092-7.345,9.092" transform="translate(-167.32 -361.982)"/>
          </g>
        </g>
      </g>
      <path id="Rectangle_4" data-name="Rectangle 4" class="cls-7" d="M4.236,0h478.8a4.236,4.236,0,0,1,4.236,4.236V30.163a0,0,0,0,1,0,0H0a0,0,0,0,1,0,0V4.236A4.236,4.236,0,0,1,4.236,0Z" transform="translate(55.588 155.281)"/>
      <rect id="Rectangle_5" data-name="Rectangle 5" class="cls-3" width="492.496" height="346.563" transform="translate(76.905 191.03)"/>
      <path id="Path_35" data-name="Path 35" class="cls-3" d="M334.387,121.462a7.541,7.541,0,1,1-7.54-7.54A7.541,7.541,0,0,1,334.387,121.462Z" transform="translate(242.554 48.9)"/>
      <path id="Path_36" data-name="Path 36" class="cls-3" d="M320.227,121.462a7.541,7.541,0,1,1-7.54-7.54A7.541,7.541,0,0,1,320.227,121.462Z" transform="translate(230.169 48.9)"/>
      <path id="Path_37" data-name="Path 37" class="cls-3" d="M306.067,121.462a7.541,7.541,0,1,1-7.542-7.54A7.541,7.541,0,0,1,306.067,121.462Z" transform="translate(217.784 48.9)"/>
      <g id="Group_13" data-name="Group 13" transform="translate(534.977 205.892)">
        <line id="Line_8" data-name="Line 8" class="cls-8" x1="19.504"/>
        <line id="Line_9" data-name="Line 9" class="cls-8" x1="19.504" transform="translate(0 7.911)"/>
        <line id="Line_10" data-name="Line 10" class="cls-8" x1="19.504" transform="translate(0 15.821)"/>
      </g>
      <g id="Group_14" data-name="Group 14" transform="translate(111.019 410.38)">
        <line id="Line_11" data-name="Line 11" class="cls-8" x2="147.583"/>
        <line id="Line_12" data-name="Line 12" class="cls-8" x2="147.583" transform="translate(0 11.641)"/>
        <line id="Line_13" data-name="Line 13" class="cls-8" x2="116.364" transform="translate(0 23.503)"/>
      </g>
      <g id="Group_15" data-name="Group 15" transform="translate(82.838 194.938)">
        <line id="Line_14" data-name="Line 14" class="cls-9" y2="336.918" transform="translate(341.146)"/>
        <line id="Line_15" data-name="Line 15" class="cls-9" x2="479.022" transform="translate(0 264.935)"/>
        <rect id="Rectangle_6" data-name="Rectangle 6" class="cls-3" width="6.461" height="6.461" transform="translate(337.916 261.704)"/>
      </g>
      <path id="Path_38" data-name="Path 38" class="cls-7" d="M212,58.014H119.571a4.079,4.079,0,0,0-4.077,4.079v43.014a4.078,4.078,0,0,0,4.077,4.079H161.05l4.735,16.954,4.735-16.954H212a4.079,4.079,0,0,0,4.079-4.079V62.093A4.08,4.08,0,0,0,212,58.014Z" transform="translate(64.289)"/>
      <g id="Group_16" data-name="Group 16" transform="translate(195.16 70.33)">
        <line id="Line_16" data-name="Line 16" class="cls-8" x2="69.83"/>
        <line id="Line_17" data-name="Line 17" class="cls-8" x2="69.83" transform="translate(0 8.847)"/>
        <line id="Line_18" data-name="Line 18" class="cls-8" x2="69.83" transform="translate(0 17.694)"/>
        <line id="Line_19" data-name="Line 19" class="cls-8" x2="52.627" transform="translate(0 26.541)"/>
      </g>
      <g id="Group_18" data-name="Group 18" transform="translate(137.993 514.643)">
        <rect id="Rectangle_7" data-name="Rectangle 7" class="cls-1" width="100.585" height="63.043"/>
        <rect id="Rectangle_8" data-name="Rectangle 8" class="cls-7" width="100.585" height="9.585"/>
        <g id="Group_17" data-name="Group 17" transform="translate(10.265 17.664)">
          <line id="Line_20" data-name="Line 20" class="cls-10" x2="25.71"/>
          <line id="Line_21" data-name="Line 21" class="cls-10" x2="44.497" transform="translate(12.855 7.169)"/>
          <line id="Line_22" data-name="Line 22" class="cls-10" x2="13.102" transform="translate(7.169 13.857)"/>
          <line id="Line_23" data-name="Line 23" class="cls-10" x2="29.97" transform="translate(12.855 21.754)"/>
          <line id="Line_24" data-name="Line 24" class="cls-10" x2="25.71" transform="translate(0 28.923)"/>
        </g>
      </g>
      <g id="Group_20" data-name="Group 20" transform="translate(306.381 394.227)">
        <line id="Line_25" data-name="Line 25" class="cls-6" x1="86.358" transform="translate(5.438 3.515)"/>
        <path id="Path_39" data-name="Path 39" class="cls-6" d="M274.72,279.257s0-40.125-44.84-40.125-44.84,40.125-44.84,40.125" transform="translate(-181.263 -235.811)"/>
        <circle id="Ellipse_6" data-name="Ellipse 6" class="cls-7" cx="3.778" cy="3.778" r="3.778" transform="translate(89.679 39.668)"/>
        <path id="Path_40" data-name="Path 40" class="cls-7" d="M183.025,262.3a3.777,3.777,0,1,1,3.777,3.777A3.777,3.777,0,0,1,183.025,262.3Z" transform="translate(-183.025 -218.852)"/>
        <g id="Group_19" data-name="Group 19" transform="translate(0.456 0)">
          <rect id="Rectangle_9" data-name="Rectangle 9" class="cls-7" width="6.643" height="6.643" transform="translate(96.322 6.643) rotate(180)"/>
          <rect id="Rectangle_10" data-name="Rectangle 10" class="cls-7" width="6.643" height="6.643" transform="translate(51.482 6.643) rotate(180)"/>
          <rect id="Rectangle_11" data-name="Rectangle 11" class="cls-7" width="6.643" height="6.643" transform="translate(6.643 6.643) rotate(180)"/>
        </g>
      </g>
      <path id="Path_41" data-name="Path 41" class="cls-7" d="M141.407,194.944V181.686l-9.932-.855a27.257,27.257,0,0,0-2.456-5.952l6.411-7.619-9.373-9.375-7.62,6.411a27.259,27.259,0,0,0-5.952-2.456l-.855-9.932H98.372l-.857,9.932a27.245,27.245,0,0,0-5.95,2.456l-7.62-6.411-9.375,9.375,6.411,7.619a27.444,27.444,0,0,0-2.456,5.952l-9.932.855v13.258l9.932.857a27.444,27.444,0,0,0,2.456,5.952l-6.411,7.619,9.375,9.375,7.62-6.411a27.2,27.2,0,0,0,5.95,2.456l.857,9.932H111.63l.855-9.932a27.217,27.217,0,0,0,5.952-2.456l7.62,6.411,9.373-9.375-6.411-7.619a27.257,27.257,0,0,0,2.456-5.952ZM105,203.721a15.406,15.406,0,1,1,15.406-15.406A15.405,15.405,0,0,1,105,203.721Z" transform="translate(23.267 82.126)"/>
      <path id="Path_42" data-name="Path 42" class="cls-7" d="M154.724,204.472V195.4l-6.8-.585a18.7,18.7,0,0,0-1.682-4.074l4.389-5.217-6.417-6.417L139,183.493a18.737,18.737,0,0,0-4.074-1.682l-.587-6.8h-9.075l-.585,6.8a18.7,18.7,0,0,0-4.074,1.682l-5.217-4.389-6.417,6.417,4.389,5.217a18.7,18.7,0,0,0-1.682,4.074l-6.8.585v9.075l6.8.587a18.737,18.737,0,0,0,1.682,4.074l-4.389,5.215,6.417,6.417,5.217-4.389a18.7,18.7,0,0,0,4.074,1.682l.585,6.8h9.075l.587-6.8A18.7,18.7,0,0,0,139,216.376l5.215,4.389,6.417-6.417-4.389-5.215a18.736,18.736,0,0,0,1.682-4.074Zm-24.92,6.008a10.546,10.546,0,1,1,10.545-10.545A10.547,10.547,0,0,1,129.8,210.481Z" transform="translate(55.007 102.335)"/>
      <g id="Group_21" data-name="Group 21" transform="translate(442.518 481.918)">
        <line id="Line_26" data-name="Line 26" class="cls-8" x2="72.597"/>
        <line id="Line_27" data-name="Line 27" class="cls-8" x2="72.597" transform="translate(0 11.641)"/>
        <line id="Line_28" data-name="Line 28" class="cls-8" x2="41.378" transform="translate(0 23.504)"/>
      </g>
      <path id="Path_43" data-name="Path 43" class="cls-7" d="M226.834,308.025H188.611a9.4,9.4,0,0,1-9.405-9.405h0a9.406,9.406,0,0,1,9.405-9.407h38.222a9.408,9.408,0,0,1,9.407,9.407h0A9.406,9.406,0,0,1,226.834,308.025Z" transform="translate(120.015 202.22)"/>
      <path id="Path_44" data-name="Path 44" class="cls-7" d="M264.828,308.025H226.606a9.406,9.406,0,0,1-9.407-9.405h0a9.408,9.408,0,0,1,9.407-9.407h38.222a9.406,9.406,0,0,1,9.405,9.407h0A9.4,9.4,0,0,1,264.828,308.025Z" transform="translate(153.246 202.22)"/>
      <g id="Group_22" data-name="Group 22" transform="translate(447.82 309.128)">
        <rect id="Rectangle_12" data-name="Rectangle 12" class="cls-3" width="81.062" height="81.061"/>
        <line id="Line_29" data-name="Line 29" class="cls-3" x2="81.062" y2="81.061"/>
        <line id="Line_30" data-name="Line 30" class="cls-3" x1="81.062" y2="81.061"/>
      </g>
      <g id="Group_24" data-name="Group 24" transform="translate(516.31 260.977)">
        <rect id="Rectangle_13" data-name="Rectangle 13" class="cls-1" width="100.586" height="63.043"/>
        <rect id="Rectangle_14" data-name="Rectangle 14" class="cls-7" width="100.586" height="9.585"/>
        <g id="Group_23" data-name="Group 23" transform="translate(10.266 17.664)">
          <line id="Line_31" data-name="Line 31" class="cls-10" x2="25.71"/>
          <line id="Line_32" data-name="Line 32" class="cls-10" x2="44.497" transform="translate(12.855 7.169)"/>
          <line id="Line_33" data-name="Line 33" class="cls-10" x2="13.102" transform="translate(7.169 13.857)"/>
          <line id="Line_34" data-name="Line 34" class="cls-10" x2="29.97" transform="translate(12.855 21.754)"/>
          <line id="Line_35" data-name="Line 35" class="cls-10" x2="25.71" transform="translate(0 28.923)"/>
        </g>
      </g>
      <g id="Group_25" data-name="Group 25" transform="translate(452.351 217.109)">
        <path id="Path_45" data-name="Path 45" class="cls-3" d="M288.147,142.88V161.8l-8.342,8.342H260.89V142.88Z" transform="translate(-260.89 -142.88)"/>
        <path id="Path_46" data-name="Path 46" class="cls-3" d="M279.322,152.97l-8.342,8.342V152.97Z" transform="translate(-252.065 -134.055)"/>
      </g>
      <g id="Group_26" data-name="Group 26" transform="translate(162.47 363.398)">
        <path id="Path_47" data-name="Path 47" class="cls-3" d="M133.516,220.915V239.83l-8.342,8.342H106.258V220.915Z" transform="translate(-106.258 -220.915)"/>
        <path id="Path_48" data-name="Path 48" class="cls-3" d="M124.691,231.005l-8.342,8.342v-8.342Z" transform="translate(-97.433 -212.09)"/>
      </g>
      <g id="Group_27" data-name="Group 27" transform="translate(59.469 479.93)">
        <path id="Path_49" data-name="Path 49" class="cls-3" d="M78.572,283.077v18.915l-8.342,8.342H51.315V283.077Z" transform="translate(-51.315 -283.077)"/>
        <path id="Path_50" data-name="Path 50" class="cls-3" d="M69.747,293.167,61.4,301.509v-8.342Z" transform="translate(-42.49 -274.252)"/>
      </g>
      <path id="Path_51" data-name="Path 51" class="cls-3" d="M264.23,243.533c-9.909.847-22.518-11-22.518-11a2.216,2.216,0,0,1-3.539-.45c-1.61-2.317-8.6-7.692-9-12.345s7.864-12.193,7.864-12.193c-6.37,1.738-7.041-1.995-7.041-1.995s10.706-8.841,14.45-9.077c1.466-.094,7.851,3.575,14.015,8.533,6.449,5.187,18.55,23.469,18.55,23.469s40.969,29.749,51.324,37.366C342,275.888,358.191,293.71,358.191,293.71s54.4,24.517,69.319,37.99L407.24,379.738s-49.442-33.127-54.386-41.531-9.889-3.348-14.832-8.843-9.684-11.771-9.684-11.771a83.693,83.693,0,0,1-23.529-17.106c-11.563-11.867-21.74-30.015-28.131-40.892S264.23,243.533,264.23,243.533Z" transform="translate(163.71 121.102)"/>
      <path id="Path_52" data-name="Path 52" class="cls-3" d="M264.47,230.907s-14.744-3.573-16.028-13.3c-.416-3.164-3.164-6.8-3.164-6.8s-13.771-.681-12.9-6.286l18.36-1.622a31.989,31.989,0,0,1,16,13.453" transform="translate(166.491 126.719)"/>
      <path id="Path_53" data-name="Path 53" class="cls-6" d="M235.856,223.225a5.97,5.97,0,0,0,.621-3.974s4.049-.733,3.6-4.321c0,0,6.006-.739,2.13-7.819" transform="translate(169.565 130.408)"/>
      <path id="Path_54" data-name="Path 54" class="cls-6" d="M242.3,215.347s-8.065-5.99-8.98-8.715" transform="translate(167.343 129.99)"/>
      <path id="Path_55" data-name="Path 55" class="cls-6" d="M240.27,217.462s-8.6-5.234-8.751-8.307" transform="translate(165.771 132.197)"/>
      <path id="Path_56" data-name="Path 56" class="cls-6" d="M240.621,199.206s-2.731,4.917-7.257,5.945" transform="translate(167.385 123.495)"/>
      <path id="Path_57" data-name="Path 57" class="cls-6" d="M236.511,200.234a23.633,23.633,0,0,1,4.047,2.677" transform="translate(170.138 124.394)"/>
      <path id="Path_58" data-name="Path 58" class="cls-11" d="M482.418,305.805s-32.5-14.142-65.427-21.858-86.161-14.587-86.161-14.587,14.654,149.6,10.8,158.6-27.036,39.218-27.036,39.218,125.4,48.893,147.258,53.055,10.457-71.7,10.457-71.7S495.272,352.094,482.418,305.805Z" transform="translate(238.431 184.855)"/>
      <path id="Path_59" data-name="Path 59" class="cls-3" d="M404.548,299.495s2.981,5.68-4.855,8.567c-20.3,7.5-41.936.881-39.63-7.067.881-3.037,5.905,0,5.586-11.342a13.813,13.813,0,0,0-1.368-4.987,51.491,51.491,0,0,0-5.155-8.642,107.354,107.354,0,0,0-6.955-8.68s32.225-20.565,56.127,0C408.3,267.345,399.411,271.844,404.548,299.495Z" transform="translate(271.3 175.098)"/>
      <g id="Group_29" data-name="Group 29" transform="translate(449.524 646.419)">
        <path id="Path_60" data-name="Path 60" class="cls-12" d="M525.636,466.506c-12.691,20.678-77.086,30.388-112.236,29.47-35.131-.9-136.288-48.8-143.149-58.939-6.355-9.392-21.971-40.436,2.1-59.2a46.642,46.642,0,0,1,6.486-4.2c16.478-8.923,126.071,19.215,126.071,19.215s6.786-4.293,9.28-3.974c7.649.975,13.066,7.161,28.57,11.567,10.817,3.093,40.343-8.792,59.2,1.425a26.012,26.012,0,0,1,5.736,4.162C525.317,422.864,538.308,445.829,525.636,466.506Z" transform="translate(-259.382 -371.887)"/>
        <g id="Group_28" data-name="Group 28" class="cls-13">
          <path id="Path_61" data-name="Path 61" class="cls-14" d="M495.908,401.868c-19.328-1.293-36.556,2.756-48.591,9.861-14.266,8.436-81.641,40.886-81.641,40.886.15-3.487,3.9-10.517,3.9-10.517-6.336-5.643-22.908-10.029-22.908-10.029-12.841-10.967-63.795-43.679-80.367-54.234a46.639,46.639,0,0,1,6.486-4.2c16.478-8.923,126.071,19.215,126.071,19.215s6.786-4.293,9.279-3.974c7.649.975,13.066,7.161,28.57,11.567C447.523,403.536,477.049,391.651,495.908,401.868Z" transform="translate(-253.331 -371.887)"/>
        </g>
        <path id="Path_63" data-name="Path 63" class="cls-6" d="M525.636,466.506c-12.691,20.678-77.086,30.388-112.236,29.47-35.131-.9-136.288-48.8-143.149-58.939-6.355-9.392-21.971-40.436,2.1-59.2a46.642,46.642,0,0,1,6.486-4.2c16.478-8.923,126.071,19.215,126.071,19.215s6.786-4.293,9.28-3.974c7.649.975,13.066,7.161,28.57,11.567,10.817,3.093,40.343-8.792,59.2,1.425a26.012,26.012,0,0,1,5.736,4.162C525.317,422.864,538.308,445.829,525.636,466.506Z" transform="translate(-259.382 -371.887)"/>
      </g>
      <g id="Group_41" data-name="Group 41" transform="translate(585.961 739.324)">
        <path id="Path_64" data-name="Path 64" class="cls-3" d="M426.888,432.316l1.62,7.066s-4.31,12.238-23.268,14.232-30.176,6.2-39.285,6.745a77.961,77.961,0,0,1-14.412-.231l-1.862-2.782Z" transform="translate(-316.84 -411.939)"/>
        <g id="Group_31" data-name="Group 31" transform="translate(0 0)">
          <path id="Path_65" data-name="Path 65" class="cls-15" d="M332.162,441.077,365,466.85s25.46-2.017,47.088-7.038l0-.015c15.562-3.6,29.147-8.77,29.9-15.848,1.138-10.762-10.367-13.711-24.039-13.291-2.557.056-5.176.253-7.819.531-21.883,2.345-49.7-9.743-49.7-9.743Z" transform="translate(-332.162 -421.446)"/>
          <g id="Group_30" data-name="Group 30" class="cls-16">
            <path id="Path_66" data-name="Path 66" class="cls-17" d="M442,443.71c-5.9,2.325-13.228,5.558-18.265,8.987,0,0-30.5,15.7-77.373-.471l-14.2-11.149,28.275-19.631s27.807,12.09,49.7,9.733c2.649-.276,5.264-.471,7.817-.519C431.517,430.239,442.941,433.132,442,443.71Z" transform="translate(-332.165 -421.445)"/>
          </g>
          <path id="Path_68" data-name="Path 68" class="cls-6" d="M332.162,441.077,365,466.85s25.46-2.017,47.088-7.038l0-.015c15.562-3.6,29.147-8.77,29.9-15.848,1.138-10.762-10.367-13.711-24.039-13.291-2.557.056-5.176.253-7.819.531-21.883,2.345-49.7-9.743-49.7-9.743Z" transform="translate(-332.162 -421.446)"/>
        </g>
        <g id="Group_33" data-name="Group 33" transform="translate(28.319 29.696)">
          <path id="Path_69" data-name="Path 69" class="cls-18" d="M349.561,437.381c-5.92.965.585,13.074,8.61,9.4S355.481,436.415,349.561,437.381Z" transform="translate(-347.268 -437.287)"/>
          <g id="Group_32" data-name="Group 32" class="cls-19">
            <path id="Path_70" data-name="Path 70" class="cls-20" d="M360.672,444.824a126.019,126.019,0,0,1-12.757-2.227c-1.138-2.371-.877-4.81,1.642-5.215C354.529,436.568,362.882,441.151,360.672,444.824Z" transform="translate(-347.267 -437.287)"/>
          </g>
          <path id="Path_72" data-name="Path 72" class="cls-6" d="M349.561,437.381c-5.92.965.585,13.074,8.61,9.4S355.481,436.415,349.561,437.381Z" transform="translate(-347.268 -437.287)"/>
        </g>
        <g id="Group_35" data-name="Group 35" transform="translate(77.369 9.174)">
          <path id="Path_73" data-name="Path 73" class="cls-18" d="M375.99,455.518c15.562-3.6,29.147-8.77,29.9-15.848,1.138-10.762-10.367-13.711-24.039-13.291C381.247,426.951,367.995,439.768,375.99,455.518Z" transform="translate(-373.433 -426.34)"/>
          <g id="Group_34" data-name="Group 34" class="cls-21">
            <path id="Path_74" data-name="Path 74" class="cls-17" d="M405.891,439.43c-5.9,2.325-13.228,5.558-18.265,8.987a61.57,61.57,0,0,1-12.84,4.291c-5.249-14.431,6.484-25.791,7.054-26.328C395.41,425.958,406.834,428.851,405.891,439.43Z" transform="translate(-373.428 -426.338)"/>
          </g>
          <path id="Path_76" data-name="Path 76" class="cls-6" d="M375.99,455.518c15.562-3.6,29.147-8.77,29.9-15.848,1.138-10.762-10.367-13.711-24.039-13.291C381.247,426.951,367.995,439.768,375.99,455.518Z" transform="translate(-373.433 -426.34)"/>
        </g>
        <g id="Group_36" data-name="Group 36" transform="translate(67.375 8.34)">
          <path id="Path_77" data-name="Path 77" class="cls-3" d="M369.555,442.539c.032,0,.064.006.094.007a1.623,1.623,0,0,0,1.7-1.545c.326-6.779,5.545-12.3,5.6-12.358a1.625,1.625,0,0,0-2.341-2.253c-.249.261-6.115,6.432-6.5,14.454A1.625,1.625,0,0,0,369.555,442.539Z" transform="translate(-368.102 -425.895)"/>
        </g>
        <g id="Group_37" data-name="Group 37" transform="translate(60.87 8.287)">
          <path id="Path_78" data-name="Path 78" class="cls-3" d="M366.083,442.953a1.182,1.182,0,0,0,.141.009,1.625,1.625,0,0,0,1.657-1.592c.135-6.85,4.925-12.789,4.973-12.851a1.624,1.624,0,0,0-2.512-2.06c-.227.274-5.555,6.846-5.71,14.845A1.623,1.623,0,0,0,366.083,442.953Z" transform="translate(-364.632 -425.866)"/>
        </g>
        <g id="Group_38" data-name="Group 38" transform="translate(53.088 7.498)">
          <path id="Path_79" data-name="Path 79" class="cls-3" d="M361.936,442.5l.028,0a1.627,1.627,0,0,0,1.76-1.477c.5-5.7,5.345-12.976,5.393-13.049a1.625,1.625,0,0,0-2.7-1.813c-.219.326-5.36,8.044-5.933,14.577A1.628,1.628,0,0,0,361.936,442.5Z" transform="translate(-360.481 -425.445)"/>
        </g>
        <g id="Group_39" data-name="Group 39" transform="translate(45.573 6.188)">
          <path id="Path_80" data-name="Path 80" class="cls-3" d="M358.09,442.335a1.658,1.658,0,0,0,.441-.013,1.627,1.627,0,0,0,1.335-1.871c-1.155-6.9,5.258-12.815,5.322-12.873a1.626,1.626,0,0,0-2.178-2.414c-.319.289-7.8,7.148-6.349,15.824A1.628,1.628,0,0,0,358.09,442.335Z" transform="translate(-356.472 -424.747)"/>
        </g>
        <g id="Group_40" data-name="Group 40" transform="translate(37.5 3.997)">
          <path id="Path_81" data-name="Path 81" class="cls-3" d="M353.872,441.436a1.623,1.623,0,0,0,1.755-1.98c-1.414-6.153,4.653-13.108,4.715-13.175a1.626,1.626,0,0,0-2.433-2.158c-.3.334-7.24,8.265-5.448,16.06A1.623,1.623,0,0,0,353.872,441.436Z" transform="translate(-352.166 -423.578)"/>
        </g>
      </g>
      <g id="Group_49" data-name="Group 49" transform="translate(453.897 737.457)">
        <path id="Path_82" data-name="Path 82" class="cls-3" d="M264.07,426.677l-2.355,6.859s3,12.62,21.645,16.6,29.359,9.334,38.359,10.834a78.012,78.012,0,0,0,14.358,1.286l2.145-2.572Z" transform="translate(-261.715 -415.004)"/>
        <g id="Group_43" data-name="Group 43" transform="translate(2.356 0)">
          <path id="Path_83" data-name="Path 83" class="cls-15" d="M372.488,442.942l-35.362,22.183s-25.109-4.681-46.088-11.945v-.017c-15.1-5.215-28.066-11.782-28.066-18.9,0-10.822,11.749-12.545,25.3-10.693,2.535.326,5.12.8,7.72,1.35,21.515,4.63,50.443-4.469,50.443-4.469Z" transform="translate(-262.972 -420.45)"/>
          <g id="Group_42" data-name="Group 42" class="cls-22">
            <path id="Path_84" data-name="Path 84" class="cls-17" d="M350.8,442.942,330,455.992c-20.884-6.289-34.469-19.6-42.236-29.756,18.445.049,36.987-5.785,36.987-5.785Z" transform="translate(-241.287 -420.45)"/>
          </g>
          <path id="Path_86" data-name="Path 86" class="cls-6" d="M372.488,442.942l-35.362,22.183s-25.109-4.681-46.088-11.945v-.017c-15.1-5.215-28.066-11.782-28.066-18.9,0-10.822,11.749-12.545,25.3-10.693,2.535.326,5.12.8,7.72,1.35,21.515,4.63,50.443-4.469,50.443-4.469Z" transform="translate(-262.972 -420.45)"/>
        </g>
        <path id="Path_87" data-name="Path 87" class="cls-3" d="M291.038,452.008c-15.1-5.215-28.066-11.782-28.066-18.9,0-10.822,11.749-12.545,25.3-10.693C288.81,423.048,300.641,437.187,291.038,452.008Z" transform="translate(-260.616 -419.295)"/>
        <g id="Group_44" data-name="Group 44" transform="translate(36.63 3.371)">
          <path id="Path_88" data-name="Path 88" class="cls-3" d="M287.487,439.463c-.032,0-.064,0-.094,0a1.622,1.622,0,0,1-1.53-1.713c.388-6.777-4.222-12.817-4.269-12.877a1.625,1.625,0,0,1,2.566-1.995c.219.283,5.4,7.038,4.947,15.055A1.625,1.625,0,0,1,287.487,439.463Z" transform="translate(-281.254 -422.248)"/>
        </g>
        <g id="Group_45" data-name="Group 45" transform="translate(43.808 4.076)">
          <path id="Path_89" data-name="Path 89" class="cls-3" d="M290.568,440.2a1.158,1.158,0,0,1-.141-.006,1.624,1.624,0,0,1-1.481-1.757c.585-6.826-3.554-13.235-3.6-13.3a1.626,1.626,0,0,1,2.716-1.787c.2.3,4.8,7.394,4.119,15.363A1.623,1.623,0,0,1,290.568,440.2Z" transform="translate(-285.084 -422.624)"/>
        </g>
        <g id="Group_46" data-name="Group 46" transform="translate(51.309 4.075)">
          <path id="Path_90" data-name="Path 90" class="cls-3" d="M294.889,440.2h-.028a1.624,1.624,0,0,1-1.6-1.653c.1-5.716-3.952-13.466-3.993-13.543a1.626,1.626,0,0,1,2.874-1.52c.184.349,4.484,8.564,4.368,15.121A1.625,1.625,0,0,1,294.889,440.2Z" transform="translate(-289.085 -422.624)"/>
        </g>
        <g id="Group_47" data-name="Group 47" transform="translate(58.585 3.528)">
          <path id="Path_91" data-name="Path 91" class="cls-3" d="M298.888,440.46a1.679,1.679,0,0,1-.437-.058,1.627,1.627,0,0,1-1.132-2c1.875-6.743-3.881-13.3-3.941-13.363a1.626,1.626,0,0,1,2.42-2.171c.287.321,7.009,7.928,4.653,16.4A1.624,1.624,0,0,1,298.888,440.46Z" transform="translate(-292.966 -422.332)"/>
        </g>
        <g id="Group_48" data-name="Group 48" transform="translate(67.507 2.266)">
          <path id="Path_92" data-name="Path 92" class="cls-3" d="M302.867,439.979a1.625,1.625,0,0,1-1.537-2.154c2.053-5.971-3.251-13.522-3.3-13.6a1.625,1.625,0,0,1,2.645-1.89c.261.362,6.333,8.98,3.731,16.544A1.627,1.627,0,0,1,302.867,439.979Z" transform="translate(-297.725 -421.659)"/>
        </g>
        <path id="Path_93" data-name="Path 93" class="cls-3" d="M310.22,436.251c5.787,1.582-1.953,12.939-9.549,8.44S304.435,434.669,310.22,436.251Z" transform="translate(-229.857 -406.872)"/>
      </g>
      <path id="Path_94" data-name="Path 94" class="cls-1" d="M268.917,403.986c8.693,12.17,34.424,25.608,60.068,36.7A121.045,121.045,0,0,0,345.066,461.7c15.786,16.236,22.222,7.139,22.222,7.139s9.97-1.117,24.695-3.134c.979,1.888,3.217,4.852,7.444,4.184,1.914-.3,5.6-3.041,9.759-6.657,37.169-5.594,87.623-14.926,101.247-25.9" transform="translate(198.482 302.607)"/>
      <g id="Group_50" data-name="Group 50" transform="translate(526.232 676.623)">
        <path id="Path_95" data-name="Path 95" class="cls-6" d="M468.411,394.825c-6.428-7.071-12.858-7.394-26.36-6.428,0,0-35.223,11.169-59.788,26.037s-60.433,30.488-60.433,30.488-10.929-3.164-18.533,0c0,0-5.341.414-1.762,9.745" transform="translate(-300.301 -387.999)"/>
        <path id="Path_96" data-name="Path 96" class="cls-6" d="M405.841,414.167s.18,10.892-15.26,18.435" transform="translate(-221.336 -365.111)"/>
        <path id="Path_97" data-name="Path 97" class="cls-6" d="M307.841,389.925s24.391,17.629,29.252,29.252c0,0,9.379,3.991,13.85,7.139" transform="translate(-293.705 -386.314)"/>
        <path id="Path_98" data-name="Path 98" class="cls-6" d="M324.389,397.742a27.917,27.917,0,0,1,.857,15.764" transform="translate(-279.231 -379.477)"/>
        <path id="Path_99" data-name="Path 99" class="cls-6" d="M321.391,391.64a43.2,43.2,0,0,1,3.491,6.1" transform="translate(-281.854 -384.814)"/>
        <path id="Path_100" data-name="Path 100" class="cls-6" d="M339.906,390.783s8.157,10.9,10.187,19.753" transform="translate(-265.659 -385.564)"/>
        <path id="Path_101" data-name="Path 101" class="cls-6" d="M364.136,426.459a70.15,70.15,0,0,0,9.045-1.115" transform="translate(-244.466 -355.335)"/>
        <path id="Path_102" data-name="Path 102" class="cls-6" d="M323.328,421.77c22.256,4.254,46.634,7.5,70.1,8.05" transform="translate(-280.159 -358.461)"/>
      </g>
      <path id="Path_103" data-name="Path 103" class="cls-3" d="M471.927,340.355s-4.4,76.765-9.595,81.266-13.389,5.785-28.9,7.071-84.075,5.5-84.075,5.5l-7.334-22.035s36.46-3.7,52.642-9.656,37.248-9.857,37.248-9.857-3.063-19.333-3.063-27.646V325.851" transform="translate(262.427 234.266)"/>
      <path id="Path_104" data-name="Path 104" class="cls-11" d="M421.421,288.8c16.72,10.286,21.648,34.074,15.861,84.864,0,0,4.936,6-2.356,9,0,0-27.3-10.211-40.011-3.178s-9.409-9.726-9.409-9.726-5.227-46.718,6.346-55.16" transform="translate(299.428 201.86)"/>
      <path id="Path_105" data-name="Path 105" class="cls-10" d="M391.159,298.747s-16.073,16.714-1.929,58.932c0,0-1.965,7.68-1.948,10.5s3.877,4.287,3.877,4.287" transform="translate(298.621 210.559)"/>
      <path id="Path_106" data-name="Path 106" class="cls-10" d="M377.518,313.836s1.172,20.572,13.946,29.575" transform="translate(293.47 223.756)"/>
      <path id="Path_107" data-name="Path 107" class="cls-10" d="M404.278,296.394s-24.912,9.546-44.735-1.022c-11.75-6.263-6.91-16.336-6.91-16.336" transform="translate(270.84 193.319)"/>
      <g id="Group_51" data-name="Group 51" transform="translate(451.72 569.917)">
        <path id="Path_108" data-name="Path 108" class="cls-23" d="M287.573,397.068H423.182a35.818,35.818,0,0,0,9.077-1.17l26.748-7.017a1.733,1.733,0,0,0,1.292-1.676h0a1.73,1.73,0,0,0-1.732-1.73H281.971a1.731,1.731,0,0,0-1.732,1.73v2.529A7.334,7.334,0,0,0,287.573,397.068Z" transform="translate(-243.335 -283.501)"/>
        <path id="Path_109" data-name="Path 109" class="cls-24" d="M291.348,437.908H427.335c2.373,0,3.794-1.955,3.174-4.366l-25.229-98.1a5.978,5.978,0,0,0-5.42-4.364H263.873c-2.371,0-3.794,1.953-3.174,4.364l25.229,98.1A5.98,5.98,0,0,0,291.348,437.908Z" transform="translate(-260.553 -331.079)"/>
        <line id="Line_36" data-name="Line 36" class="cls-6" x1="2.571" transform="translate(5.544 3.488)"/>
        <line id="Line_37" data-name="Line 37" class="cls-6" x1="13.287" transform="translate(14.759 3.488)"/>
        <path id="Path_110" data-name="Path 110" class="cls-6" d="M409.581,423.876,387.316,337.3a5.976,5.976,0,0,0-5.42-4.364H277.114" transform="translate(-246.069 -329.451)"/>
        <line id="Line_38" data-name="Line 38" class="cls-6" x1="0.556" y1="2.162" transform="translate(164.897 99.811)"/>
        <path id="Path_111" data-name="Path 111" class="cls-3" d="M298.812,366.209a13.581,13.581,0,0,0,.474,2.351c1.736,5.905,7.268,9.493,12.35,8s7.8-7.506,6.064-13.411c-1.753-5.92-7.283-9.493-12.365-8a8.443,8.443,0,0,0-1.719.729C304.054,360.247,302.17,364.33,298.812,366.209Z" transform="translate(-227.09 -310.323)"/>
      </g>
      <path id="Path_112" data-name="Path 112" class="cls-11" d="M353.535,274.079c-11.771-1.286-18.2-12.466-25.27-14.216a79.021,79.021,0,0,1-11.595-3.731s-2.441-8.522-6.085-5.547-8.462,66.539-3.749,64.543,4.713,5.5,4.713,5.5l43.706,38.52,36.631-64.867S365.306,275.365,353.535,274.079Z" transform="translate(229.935 167.883)"/>
      <rect id="Rectangle_15" data-name="Rectangle 15" class="cls-9" width="168.719" height="112.479" transform="translate(227.383 214.322)"/>
      <circle id="Ellipse_7" data-name="Ellipse 7" class="cls-7" cx="2.781" cy="2.781" r="2.781" transform="translate(308.962 211.541)"/>
      <circle id="Ellipse_8" data-name="Ellipse 8" class="cls-7" cx="2.781" cy="2.781" r="2.781" transform="translate(224.602 267.781)"/>
      <circle id="Ellipse_9" data-name="Ellipse 9" class="cls-7" cx="2.781" cy="2.781" r="2.781" transform="translate(308.962 324.02)"/>
      <circle id="Ellipse_10" data-name="Ellipse 10" class="cls-7" cx="2.781" cy="2.781" r="2.781" transform="translate(393.321 267.781)"/>
      <rect id="Rectangle_16" data-name="Rectangle 16" class="cls-7" width="6.461" height="6.461" transform="translate(392.872 323.571)"/>
      <rect id="Rectangle_17" data-name="Rectangle 17" class="cls-7" width="6.461" height="6.461" transform="translate(392.872 211.092)"/>
      <rect id="Rectangle_18" data-name="Rectangle 18" class="cls-7" width="6.461" height="6.461" transform="translate(224.153 323.571)"/>
      <rect id="Rectangle_19" data-name="Rectangle 19" class="cls-7" width="6.461" height="6.461" transform="translate(224.153 211.092)"/>
      <g id="Group_52" data-name="Group 52" transform="translate(238.578 224.269)">
        <rect id="Rectangle_20" data-name="Rectangle 20" class="cls-3" width="146.841" height="93.302"/>
        <path id="Path_113" data-name="Path 113" class="cls-7" d="M293.7,199.913l-16.324,16.324-44.162-44.162-18.58,18.58L185,161.026l-38.145,38.145v28.3H293.7Z" transform="translate(-146.857 -134.169)"/>
        <circle id="Ellipse_11" data-name="Ellipse 11" class="cls-7" cx="10.367" cy="10.367" r="10.367" transform="translate(106.052 16.116)"/>
      </g>
      <path id="Path_114" data-name="Path 114" class="cls-10" d="M340.83,271.992s-11.149,20.938-12.566,52.982" transform="translate(250.39 187.157)"/>
      <path id="Path_115" data-name="Path 115" class="cls-10" d="M317.363,279.732s3.356,17.806,13.171,30.712" transform="translate(240.855 193.927)"/>
      <path id="Path_116" data-name="Path 116" class="cls-10" d="M342.026,318.928s16.84,55.411,53.533,71.736" transform="translate(262.427 228.21)"/>
      <path id="Path_117" data-name="Path 117" class="cls-15" d="M374.252,265.42s-1.593,12.091-13.216,12.935a51.5,51.5,0,0,0-5.155-8.642A162.313,162.313,0,0,1,374.252,265.42Z" transform="translate(274.545 181.409)"/>
      <g id="Group_53" data-name="Group 53" transform="translate(609.845 353.597)">
        <path id="Path_118" data-name="Path 118" class="cls-3" d="M408.622,303.729s19.44,2.375,27.578-23.718,1.743-45.76-30.435-55.231c-17.841-5.249-35.682-1.025-42.111,12.476-5.513,11.576-2.908,21.195-4.179,25.075-1.421,4.34-14.574,8.035-14.574,11.017,0,2.467,7.287,6.663,7.287,6.663l-2.143,6.481,2.019,1.072s-3.734,14.607-2.019,19.751c1.254,3.759,34.181,5.32,36.753-4" transform="translate(-344.902 -209.646)"/>
        <path id="Path_119" data-name="Path 119" class="cls-6" d="M354.991,235.474s6.428,1.607,8.2,4.983" transform="translate(-336.078 -198.38)"/>
        <path id="Path_120" data-name="Path 120" class="cls-15" d="M355.638,244.873c-.276,1.888.157,3.515.971,3.635s1.695-1.316,1.972-3.2-.158-3.515-.971-3.635S355.915,242.985,355.638,244.873Z" transform="translate(-335.585 -192.968)"/>
        <path id="Path_121" data-name="Path 121" class="cls-6" d="M348.723,257.251s10.464,4.017,14.362,1.588" transform="translate(-341.56 -179.333)"/>
        <path id="Path_122" data-name="Path 122" class="cls-6" d="M350.813,245.831c-.778,4.188.159,7.875,2.094,8.235s4.134-2.746,4.912-6.934-.159-7.877-2.094-8.237S351.591,241.641,350.813,245.831Z" transform="translate(-339.972 -195.413)"/>
        <path id="Path_123" data-name="Path 123" class="cls-25" d="M431,244.744a30.945,30.945,0,0,0-12.215-18.859c-10.716-7.928-23.574-9.643-23.574-9.643s6.215,2.713,8.573,6.286c0,0-16.073-12.071-35.146-4.143s-16.714,28.538-16.714,28.538l2.786-5.393s-.322,6.43,3.054,8.786c0,0,2.036-6.214,4.1-9,0,0,5.063,15.215,18.992,20.359a11.03,11.03,0,0,1-.214-7.5s7.709,16.714,5.461,24.858l2.467,4.287s8.865-8.985,16.073-1.5c4.141,4.3-7.93,20.574-9.643,20.574l7.285,10.714s18.216,2.6,28.718-17.133,7.928-28.165,7.928-28.165,3.429,4.8,3.858,7.581C442.782,275.389,445.781,254.174,431,244.744Z" transform="translate(-338.845 -215.687)"/>
        <path id="Path_124" data-name="Path 124" class="cls-3" d="M371.195,259.167s5.59-18.908,17.581-12.24,3.419,16.741-.866,20.6-7.5,10.929-10.286,10.929-3.429-3.429-3.429-3.429" transform="translate(-321.905 -189.608)"/>
        <line id="Line_39" data-name="Line 39" class="cls-6" x2="33.372" y2="6.928" transform="translate(17.847 51.719)"/>
      </g>
    </g>
  </g>
</svg>
