<svg xmlns="http://www.w3.org/2000/svg" width="44" height="44" viewBox="0 0 44 44">
  <defs>
    <style>
      .cls-1 {
        fill: #6563ff;
      }

      .cls-2 {
        fill: #fff;
      }
    </style>
  </defs>
  <g id="Group_80" data-name="Group 80" transform="translate(-1519 -21)">
    <circle id="Ellipse_3" data-name="Ellipse 3" class="cls-1" cx="22" cy="22" r="22" transform="translate(1519 21)"/>
    <path id="Path_26" data-name="Path 26" class="cls-2" d="M19.979,6.055h0a1.406,1.406,0,1,0,1.406,1.406A1.406,1.406,0,0,0,19.979,6.055Zm5.391,2.836a8.9,8.9,0,0,0-.539-2.848,5.79,5.79,0,0,0-1.36-2.075A5.509,5.509,0,0,0,21.4,2.621,8.556,8.556,0,0,0,18.55,2.07C17.307,2,16.909,2,13.721,2s-3.587,0-4.829.07a8.556,8.556,0,0,0-2.848.551A5.6,5.6,0,0,0,3.969,3.969,5.509,5.509,0,0,0,2.621,6.044,8.556,8.556,0,0,0,2.07,8.892C2,10.134,2,10.533,2,13.721s0,3.587.07,4.829A8.556,8.556,0,0,0,2.621,21.4a5.509,5.509,0,0,0,1.348,2.075A5.6,5.6,0,0,0,6.044,24.82a8.556,8.556,0,0,0,2.848.551c1.242.07,1.641.07,4.829.07s3.587,0,4.829-.07A8.556,8.556,0,0,0,21.4,24.82a5.509,5.509,0,0,0,2.075-1.348,5.684,5.684,0,0,0,1.36-2.075,8.9,8.9,0,0,0,.539-2.848c0-1.242.07-1.641.07-4.829S25.441,10.134,25.371,8.892Zm-2.11,9.517a6.575,6.575,0,0,1-.4,2.18,3.586,3.586,0,0,1-.879,1.348,3.739,3.739,0,0,1-1.348.879,6.575,6.575,0,0,1-2.18.4c-1.172.059-1.606.07-4.688.07s-3.516,0-4.688-.07a6.716,6.716,0,0,1-2.274-.352,3.833,3.833,0,0,1-1.289-.879,3.516,3.516,0,0,1-.867-1.348,6.493,6.493,0,0,1-.469-2.227c0-1.172-.07-1.606-.07-4.688s0-3.516.07-4.688a6.493,6.493,0,0,1,.41-2.227,3.516,3.516,0,0,1,.926-1.289,3.68,3.68,0,0,1,1.289-.938,6.716,6.716,0,0,1,2.227-.4c1.172,0,1.606-.07,4.688-.07s3.516,0,4.688.07a6.575,6.575,0,0,1,2.18.4,3.586,3.586,0,0,1,1.395.938,3.587,3.587,0,0,1,.879,1.289,6.575,6.575,0,0,1,.4,2.227c.059,1.172.07,1.606.07,4.688S23.32,17.237,23.261,18.409Zm-9.541-10.7a6,6,0,1,0,4.263,1.753,6.013,6.013,0,0,0-4.263-1.753Zm0,9.916a3.9,3.9,0,1,1,3.9-3.9,3.9,3.9,0,0,1-3.9,3.9Z" transform="translate(1527 29)"/>
  </g>
</svg>
