<svg xmlns="http://www.w3.org/2000/svg" width="44" height="44" viewBox="0 0 44 44">
  <defs>
    <style>
      .cls-1 {
        fill: #6563ff;
      }

      .cls-2 {
        fill: #fff;
      }
    </style>
  </defs>
  <g id="Group_79" data-name="Group 79" transform="translate(-1436 -21)">
    <circle id="Ellipse_2" data-name="Ellipse 2" class="cls-1" cx="22" cy="22" r="22" transform="translate(1436 21)"/>
    <path id="Path_23" data-name="Path 23" class="cls-2" d="M4.673,6.387v13.27H.254V6.387Zm.281-4.1c0,.024,0,.052,0,.08a2.112,2.112,0,0,1-.677,1.552h0a2.512,2.512,0,0,1-1.7.658l-.121,0H2.435l-.112,0A2.412,2.412,0,0,1,.665,3.922h0A2.187,2.187,0,0,1,0,2.346c0-.02,0-.039,0-.06v0c0-.017,0-.037,0-.057A2.152,2.152,0,0,1,.686.653h0A2.511,2.511,0,0,1,2.381,0l.112,0h0l.117,0A2.443,2.443,0,0,1,4.272.652l0,0a2.228,2.228,0,0,1,.684,1.609v.033Zm15.613,9.763v7.6h-4.4v-7.1c0-.065.006-.14.006-.215a3.851,3.851,0,0,0-.559-2l.01.017a1.9,1.9,0,0,0-1.553-.8c-.049,0-.1,0-.147.006h.007l-.073,0a2.158,2.158,0,0,0-1.344.467l0,0a2.862,2.862,0,0,0-.845,1.126l-.007.019a3.163,3.163,0,0,0-.149.972q0,.059,0,.118v7.4H7.11q.027-5.343.027-8.664T7.124,7.031l-.013-.643h4.4V8.316h-.027a5.806,5.806,0,0,1,.555-.757l-.007.007a5.705,5.705,0,0,1,.744-.686l.013-.01a3.45,3.45,0,0,1,1.14-.577l.025-.006a5.2,5.2,0,0,1,1.472-.208h.061c.058,0,.126,0,.194,0A4.744,4.744,0,0,1,19.172,7.6l0,0a6.373,6.373,0,0,1,1.394,4.452Z" transform="translate(1448.003 33.002)"/>
  </g>
</svg>
