<svg xmlns="http://www.w3.org/2000/svg" xmlns:xlink="http://www.w3.org/1999/xlink" width="56" height="55" viewBox="0 0 56 55">
  <defs>
    <style>
      .cls-1 {
        fill: none;
      }

      .cls-2 {
        clip-path: url(#clip-path);
      }

      .cls-3 {
        fill: #fff9e7;
      }

      .cls-4 {
        clip-path: url(#clip-path-2);
      }

      .cls-5 {
        fill: #6563ff;
      }

      .cls-6 {
        fill: #fff;
      }
    </style>
    <clipPath id="clip-path">
      <rect id="Rectangle_1" data-name="Rectangle 1" class="cls-1" width="56" height="55" transform="translate(-0.2 -0.2)"/>
    </clipPath>
    <clipPath id="clip-path-2">
      <path id="Path_22" data-name="Path 22" class="cls-1" d="M52.253,74.054A22.055,22.055,0,1,0,74.309,52,22.056,22.056,0,0,0,52.253,74.054" transform="translate(-52.253 -51.998)"/>
    </clipPath>
  </defs>
  <g id="Group_4" data-name="Group 4" class="cls-2" transform="translate(0.2 0.2)">
    <g id="Group_1" data-name="Group 1" transform="translate(5.642 5.723)">
      <path id="Path_1" data-name="Path 1" class="cls-3" d="M95.364,74.054A22.055,22.055,0,1,1,73.309,52,22.055,22.055,0,0,1,95.364,74.054" transform="translate(-51.253 -51.999)"/>
    </g>
    <g id="Group_2" data-name="Group 2" class="cls-4" transform="translate(5.75 5.723)">
      <path id="Path_2" data-name="Path 2" d="M211.807,164.818c.251.285.5.574.739.865s.483.584.719.88.473.592.7.892.463.6.693.9l.168.22-.263-.08q-.632-.191-1.26-.393c-.209-.068-.419-.136-.627-.208s-.417-.141-.624-.217c.216.046.43.1.644.149s.428.1.641.158q.64.163,1.276.34l-.1.14c-.234-.3-.469-.595-.7-.9s-.461-.6-.688-.9-.452-.608-.674-.916-.44-.617-.653-.931" transform="translate(-194.557 -152.621)"/>
      <path id="Path_3" data-name="Path 3" d="M277.8,164.818c-.228.334-.463.663-.7.991s-.477.652-.72.975-.487.645-.734.964-.5.637-.746.955l-.1-.138q.624-.232,1.251-.454c.21-.073.419-.146.63-.215s.421-.141.633-.207c-.2.094-.4.183-.608.273s-.407.177-.611.264q-.613.259-1.231.505l-.3.12.2-.258c.245-.321.49-.642.739-.96s.5-.635.751-.951.507-.629.765-.94.519-.62.785-.924" transform="translate(-250.524 -152.621)"/>
      <path id="Path_4" data-name="Path 4" d="M244.079,209.336s1.608,2.345,3.176.085Z" transform="translate(-223.34 -192.326)"/>
      <path id="Path_5" data-name="Path 5" class="cls-5" d="M126.631,294.168S124.8,276.621,121,274.55s-7.018-3.413-7.018-3.413l-.569.447a7.611,7.611,0,0,1-9.463-.045l-.5-.4s-3.221,1.342-7.018,3.413-5.7,15.084-5.7,15.084" transform="translate(-86.575 -247.445)"/>
      <path id="Path_6" data-name="Path 6" d="M146.055,346.694v10.264l-.81,2.053Z" transform="translate(-135.191 -314.833)"/>
      <path id="Path_7" data-name="Path 7" d="M352.55,346.694v10.264l.81,2.053Z" transform="translate(-320.084 -314.833)"/>
      <path id="Path_8" data-name="Path 8" d="M202.456,98.575s4.242-2.189,5.1-3.605a2.518,2.518,0,0,1,2.963-1.1,1.225,1.225,0,0,1,.794.642,13.412,13.412,0,0,1,.92,4.065s.614.575.729-2.8c0,0,.115-.92.575-1.189s-1.074-1.687-1.074-1.687a2.8,2.8,0,0,0-.23-1c-.192-.307-4.26-2.279-6.187-1.914-1.682.318-3.822,3.1-4.244,3.41s-.805,1-.384,1.457.537,2.378.614,2.953a1.015,1.015,0,0,0,.422.767" transform="translate(-185.13 -85.84)"/>
      <path id="Path_9" data-name="Path 9" d="M226.224,158.173a1.363,1.363,0,0,1,.975-.786,1.338,1.338,0,0,1,.17-.019c.057,0,.115,0,.171.007a1.1,1.1,0,0,1,.323.1,1.066,1.066,0,0,1,.271.183,1.368,1.368,0,0,1,.2.247c-.1-.033-.19-.083-.283-.114a1.808,1.808,0,0,0-.271-.079,1.507,1.507,0,0,0-.264-.035c-.044,0-.087,0-.13.006a1.124,1.124,0,0,0-.129.018,2,2,0,0,0-.513.178c-.17.084-.34.183-.519.294" transform="translate(-207.415 -145.975)"/>
      <path id="Path_10" data-name="Path 10" d="M269.265,157.63a1.4,1.4,0,0,1,.475-.35,1.676,1.676,0,0,1,.581-.154,1.328,1.328,0,0,1,.606.1.977.977,0,0,1,.447.4,2.674,2.674,0,0,0-.524-.16,2.411,2.411,0,0,0-.509-.024,8.99,8.99,0,0,0-1.076.185" transform="translate(-245.803 -145.758)"/>
      <path id="Path_11" data-name="Path 11" d="M233.755,169.029a.48.48,0,0,0,0-.959.48.48,0,0,0,0,.959" transform="translate(-213.719 -155.521)"/>
      <path id="Path_12" data-name="Path 12" d="M275.14,169.384a.48.48,0,0,0,0-.959.48.48,0,0,0,0,.959" transform="translate(-250.63 -155.838)"/>
      <path id="Path_13" data-name="Path 13" d="M254.124,180.825a5.166,5.166,0,0,1-.093.526c-.037.168-.075.332-.1.493a1.743,1.743,0,0,0-.039.462.489.489,0,0,0,.061.2.571.571,0,0,0,.176.177.421.421,0,0,1-.284-.066.524.524,0,0,1-.192-.25,1.084,1.084,0,0,1-.032-.584,1.891,1.891,0,0,1,.183-.52,1.634,1.634,0,0,1,.325-.441" transform="translate(-231.822 -166.897)"/>
      <path id="Path_14" data-name="Path 14" d="M268,230.348a4.437,4.437,0,0,1-2.042,1.416s1.637.179,2.042-.207Z" transform="translate(-242.853 -211.066)"/>
      <path id="Path_15" data-name="Path 15" d="M230.067,231.4a4.91,4.91,0,0,0,2.066,1.4s-1.8.439-2.066-.175Z" transform="translate(-210.843 -212.004)"/>
      <path id="Path_16" data-name="Path 16" d="M205,270.548h-.147a7.462,7.462,0,0,1-5.932-2.68.631.631,0,1,1,1.028-.733,6.222,6.222,0,0,0,4.925,2.151,7.485,7.485,0,0,0,5.42-2.2.631.631,0,0,1,.952.829A8.63,8.63,0,0,1,205,270.548" transform="translate(-182.961 -243.638)"/>
      <path id="Path_17" data-name="Path 17" d="M202.435,164.818a2.525,2.525,0,0,0-.519.747,1.354,1.354,0,0,0-.106.859,1.283,1.283,0,0,0,.166.4,1.88,1.88,0,0,0,.281.332,3.209,3.209,0,0,0,.729.506l.051.027.014.063c.084.383.184.771.3,1.15s.244.756.387,1.125.309.729.483,1.083a8.508,8.508,0,0,0,.607,1.01l.03.043v.047l-.009.651,0,.325c0,.107,0,.219-.01.333a3.453,3.453,0,0,1-.12.665,3.36,3.36,0,0,1-.255.623,3.034,3.034,0,0,1-.872,1,2.7,2.7,0,0,1-1.2.507,2.888,2.888,0,0,0,1.125-.606,3.019,3.019,0,0,0,.761-1,3.386,3.386,0,0,0,.21-.59,3.232,3.232,0,0,0,.084-.618c.007-.2,0-.429,0-.643l-.009-.651.029.09a8.545,8.545,0,0,1-.643-1.044,10.463,10.463,0,0,1-.494-1.115c-.143-.38-.272-.765-.379-1.155s-.2-.782-.272-1.187l.065.091a3.452,3.452,0,0,1-.758-.579,2.047,2.047,0,0,1-.291-.389,1.376,1.376,0,0,1,.022-1.394,2.37,2.37,0,0,1,.6-.705" transform="translate(-185.481 -152.621)"/>
      <path id="Path_18" data-name="Path 18" d="M285.086,164.818a2.367,2.367,0,0,1,.6.705,1.376,1.376,0,0,1,.022,1.394,2.043,2.043,0,0,1-.291.389,3.446,3.446,0,0,1-.758.579l.065-.091c-.069.4-.166.795-.272,1.187s-.236.776-.379,1.155a10.424,10.424,0,0,1-.495,1.115,8.542,8.542,0,0,1-.642,1.045l.029-.09-.009.651c0,.214-.01.44,0,.643a3.221,3.221,0,0,0,.084.618,3.376,3.376,0,0,0,.21.59,3.021,3.021,0,0,0,.761,1,2.888,2.888,0,0,0,1.125.606,2.7,2.7,0,0,1-1.2-.507,3.032,3.032,0,0,1-.872-1,3.363,3.363,0,0,1-.255-.623,3.453,3.453,0,0,1-.12-.665c-.006-.114-.01-.226-.01-.333l0-.325-.009-.651v-.047l.03-.043a8.49,8.49,0,0,0,.607-1.01c.175-.354.342-.713.483-1.083s.27-.746.387-1.125.217-.767.3-1.15l.014-.063.051-.027a3.214,3.214,0,0,0,.729-.506,1.885,1.885,0,0,0,.281-.332,1.285,1.285,0,0,0,.166-.4,1.354,1.354,0,0,0-.106-.859,2.523,2.523,0,0,0-.519-.747" transform="translate(-257.752 -152.621)"/>
      <path id="Path_19" data-name="Path 19" class="cls-6" d="M235.52,192.011a2.8,2.8,0,0,1-2.982,2.576,3.016,3.016,0,0,1-2.982-2.576c-.415-2.106,1.335-2.576,2.982-2.576s2.982.289,2.982,2.576" transform="translate(-210.332 -174.576)"/>
      <path id="Path_20" data-name="Path 20" d="M231.76,193.9a3.093,3.093,0,0,1-3.075-2.652,2.081,2.081,0,0,1,.328-1.8,3.442,3.442,0,0,1,2.747-.892c1.489,0,3.077.206,3.077,2.671a2.9,2.9,0,0,1-3.077,2.671m0-5.152a3.277,3.277,0,0,0-2.6.823,1.9,1.9,0,0,0-.288,1.64,2.927,2.927,0,0,0,2.889,2.5,2.711,2.711,0,0,0,2.887-2.481c0-2.075-1.059-2.481-2.887-2.481" transform="translate(-209.553 -173.795)"/>
      <path id="Path_21" data-name="Path 21" d="M242.079,196.682a2.519,2.519,0,0,1,.658-.564,2.03,2.03,0,0,1,.835-.291,1.376,1.376,0,0,1,.87.2,1.666,1.666,0,0,1,.576.652,2.4,2.4,0,0,0-.65-.523,1.41,1.41,0,0,0-.779-.143,2.379,2.379,0,0,0-.783.232,4.987,4.987,0,0,0-.728.434" transform="translate(-221.556 -180.271)"/>
    </g>
    <g id="Group_3" data-name="Group 3" transform="translate(5.803 5.723)">
      <circle id="Ellipse_1" data-name="Ellipse 1" class="cls-1" cx="22.055" cy="22.055" r="22.055"/>
    </g>
  </g>
</svg>
