<svg xmlns="http://www.w3.org/2000/svg" width="87.865" height="86.4" viewBox="0 0 87.865 86.4">
  <defs>
    <style>
      .cls-1 {
        opacity: 0.1;
      }

      .cls-2 {
        fill: #333;
      }
    </style>
  </defs>
  <g id="Group_59" data-name="Group 59" class="cls-1" transform="translate(-1401 -1080)">
    <g id="Group_55" data-name="Group 55" transform="translate(1401 1080)">
      <path id="Path_125" data-name="Path 125" class="cls-2" d="M3.556,2.845v86.4H91.421V2.845ZM84.431,82.373H10.542V9.717H84.431V82.373Z" transform="translate(-3.556 -2.845)"/>
      <path id="Path_126" data-name="Path 126" class="cls-2" d="M30.463,12.5c-2.212-1.912-5.509-3-10.127-3-4.574,0-10.127.147-10.127.147V45.086h7.424V33.7s1.3-.016,2.7-.073c5.084-.214,8.062-1.752,10.618-4.353A11.664,11.664,0,0,0,34,20.887,11.056,11.056,0,0,0,30.463,12.5ZM20.138,27.414a22.2,22.2,0,0,1-2.509-.026V15.152s1.573-.054,3.1,0a5.768,5.768,0,0,1,5.85,6.131c0,3.664-2.458,6.083-6.441,6.131Z" transform="translate(11.025 11.747)"/>
      <path id="Path_127" data-name="Path 127" class="cls-2" d="M30.468,22.917c-3.208-1.136-4.226-1.784-4.226-3.029,0-1.35,1.123-2.161,3.1-2.161,2.244,0,5.64,1.449,6.817,2.1V13.856a15.58,15.58,0,0,0-7.085-1.806c-6.469,0-10.641,3.731-10.641,8.707-.054,3.08,2.03,5.282,7.433,7.12,3.048,1.028,3.849,2.448,3.849,3.8S28.7,33.9,26.242,33.9A17.8,17.8,0,0,1,18.809,31.6V37.5a17.9,17.9,0,0,0,7.433,2.183c7.542.236,11.333-3.677,11.333-8.6-.054-3.894-2.138-6.434-7.111-8.164Z" transform="translate(29.052 17.329)"/>
    </g>
  </g>
</svg>
