<svg xmlns="http://www.w3.org/2000/svg" width="114" height="114" viewBox="0 0 114 114">
  <g id="Group_64" data-name="Group 64" transform="translate(114.272 114.272) rotate(180)">
    <rect id="Rectangle_24" data-name="Rectangle 24" width="114" height="114" transform="translate(0.272 0.272)" fill="none" opacity="0.1"/>
    <rect id="Rectangle_25" data-name="Rectangle 25" width="114" height="114" transform="translate(0.272 0.272)" fill="none"/>
    <path id="Path_146" data-name="Path 146" d="M41.067,7.142V46.423A21.45,21.45,0,0,1,19.641,67.849a3.571,3.571,0,1,1,0-7.142A14.3,14.3,0,0,0,33.925,46.423V42.852H7.142A7.15,7.15,0,0,1,0,35.71V7.142A7.15,7.15,0,0,1,7.142,0H33.925A7.15,7.15,0,0,1,41.067,7.142ZM85.7,0H58.922A7.15,7.15,0,0,0,51.78,7.142V35.71a7.15,7.15,0,0,0,7.142,7.142H85.7v3.571A14.3,14.3,0,0,1,71.42,60.707a3.571,3.571,0,1,0,0,7.142A21.45,21.45,0,0,0,92.846,46.423V7.142A7.15,7.15,0,0,0,85.7,0Z" transform="translate(10.713 24.997)" fill="#6563ff"/>
  </g>
</svg>
