<svg xmlns="http://www.w3.org/2000/svg" width="88.24" height="86.4" viewBox="0 0 88.24 86.4">
  <defs>
    <style>
      .cls-1 {
        opacity: 0.1;
      }

      .cls-2 {
        fill: #444;
      }

      .cls-3 {
        fill: #333;
      }
    </style>
  </defs>
  <g id="Group_57" data-name="Group 57" class="cls-1" transform="translate(-898.83 -1328)">
    <path id="Path_138" data-name="Path 138" class="cls-2" d="M3,2.316v86.4h88.24V2.316Zm81.624,79.6H9.746V9.117h74.88Z" transform="translate(895.828 1325.684)"/>
    <path id="Path_137" data-name="Path 137" class="cls-3" d="M33.917,46.894c.162.283,0,.547-.2.547H27.823a.81.81,0,0,1-.709-.445c-2.166-4.454-4.433-8.928-6.62-13.725h0C18.47,37.8,16.223,42.6,14.037,47.076a.628.628,0,0,1-.607.364H7.8c-.344,0-.364-.263-.2-.466l9.272-17.653L7.9,11.467a.263.263,0,0,1,.2-.466h5.769c.344,0,.466,0,.607.385,2.126,4.514,4.352,9.191,6.417,13.786,2.024-4.514,4.17-9.211,6.3-13.685.162-.283.263-.445.607-.445h5.405c.263,0,.364.2.2.466L24.463,28.8ZM57.1,45.639c0,.2,0,.283-.263.385a20.244,20.244,0,0,1-8.664,2.024c-7.348,0-12.592-4.514-12.592-13.705,0-7.9,5.243-14.049,13.563-14.049a12.531,12.531,0,0,1,1.761,0V11.346A.364.364,0,0,1,51.245,11H56.59c.263,0,.344.1.344.263V42.339a24.819,24.819,0,0,0,.162,3.3ZM50.9,25.617a5.1,5.1,0,0,0-2.024-.344c-4.251,0-7.227,3.28-7.227,8.725,0,6.235,3.037,8.745,6.863,8.745a6.073,6.073,0,0,0,2.328-.385Z" transform="translate(910.25 1342.651)"/>
  </g>
</svg>
